<svg width="673" height="561" viewBox="0 0 673 561" fill="none" xmlns="http://www.w3.org/2000/svg">
<g clip-path="url(#clip0_189_1480)">
<path d="M529.399 434.064C527.655 434.064 526.26 432.671 526.26 430.929V281.523C526.26 279.781 527.655 278.388 529.399 278.388C531.144 278.388 532.539 279.781 532.539 281.523V430.929C532.539 432.671 531.144 434.064 529.399 434.064Z" fill="#91D2FF"/>
<path fill-rule="evenodd" clip-rule="evenodd" d="M529.312 263.495C536.377 263.495 542.133 269.243 542.133 276.298C542.133 283.352 536.377 289.1 529.312 289.1C522.248 289.1 516.491 283.352 516.491 276.298C516.491 269.243 522.204 263.495 529.312 263.495Z" fill="#91D2FF"/>
<path d="M266.182 157.157C265.005 157.157 263.827 156.678 262.999 155.85C262.17 155.023 261.691 153.891 261.691 152.715C261.691 151.539 262.17 150.364 262.999 149.536C264.656 147.881 267.665 147.881 269.322 149.536C270.151 150.364 270.63 151.496 270.63 152.715C270.63 153.891 270.151 155.023 269.322 155.85C268.494 156.678 267.316 157.157 266.182 157.157Z" fill="#D6D6D6"/>
<path d="M478.683 200.006C477.811 197.698 478.945 195.129 481.256 194.258C483.524 193.343 486.14 194.519 487.013 196.783C487.885 199.091 486.794 201.66 484.44 202.531C483.916 202.749 483.393 202.836 482.826 202.836C481.082 202.88 479.381 201.791 478.683 200.006ZM495.08 191.776C493.423 189.99 493.554 187.116 495.298 185.461C497.13 183.807 499.964 183.894 501.621 185.679C503.278 187.465 503.191 190.295 501.403 191.993C500.531 192.777 499.484 193.169 498.351 193.169C497.13 193.169 495.952 192.69 495.08 191.776ZM507.29 178.059C505.066 177.014 504.15 174.314 505.197 172.093C506.287 169.872 508.947 168.958 511.171 170.046C513.395 171.091 514.311 173.748 513.264 176.012C512.479 177.58 510.91 178.494 509.253 178.494C508.555 178.538 507.944 178.407 507.29 178.059ZM513.657 160.902C511.215 160.727 509.383 158.594 509.558 156.112C509.732 153.673 511.869 151.844 514.355 152.018C516.797 152.192 518.628 154.326 518.454 156.765C518.279 159.116 516.317 160.902 514.006 160.902C513.875 160.902 513.788 160.902 513.657 160.902ZM509.601 138.345C509.471 135.906 511.346 133.816 513.788 133.642C516.23 133.511 518.323 135.384 518.497 137.822C518.628 140.304 516.753 142.395 514.311 142.525C514.224 142.525 514.137 142.525 514.049 142.525C511.695 142.525 509.732 140.696 509.601 138.345ZM266.008 138.78C263.566 138.476 261.822 136.211 262.17 133.773C262.476 131.378 264.743 129.636 267.185 129.941C269.627 130.289 271.328 132.51 271.023 134.948C270.718 137.169 268.799 138.78 266.618 138.78C266.444 138.824 266.226 138.824 266.008 138.78ZM505.589 122.276C504.543 120.012 505.502 117.399 507.726 116.354C509.95 115.309 512.61 116.311 513.657 118.532C514.704 120.752 513.701 123.409 511.477 124.41C510.866 124.715 510.212 124.846 509.601 124.846C507.944 124.846 506.331 123.888 505.589 122.276ZM270.194 120.927C268.057 119.751 267.273 117.007 268.494 114.874C269.671 112.74 272.418 111.956 274.555 113.132C276.692 114.308 277.433 117.051 276.256 119.185C275.471 120.665 273.901 121.449 272.375 121.449C271.633 121.493 270.892 121.319 270.194 120.927ZM495.908 108.734C494.164 107.035 494.077 104.205 495.778 102.42C497.478 100.634 500.313 100.591 502.101 102.289C503.889 103.987 503.976 106.818 502.232 108.603C501.359 109.518 500.182 109.997 499.005 109.997C497.914 109.997 496.781 109.561 495.908 108.734ZM280.66 105.86C279.09 103.944 279.396 101.157 281.271 99.5892C283.189 98.0215 285.98 98.2828 287.55 100.199C289.12 102.115 288.858 104.902 286.94 106.469C286.111 107.166 285.108 107.471 284.105 107.471C282.797 107.514 281.532 106.948 280.66 105.86ZM481.998 99.6763C479.73 98.7618 478.64 96.149 479.556 93.8847C480.515 91.6203 483.088 90.5316 485.399 91.4461C487.667 92.3606 488.757 94.9733 487.841 97.2812C487.1 99.0231 485.443 100.025 483.698 100.025C483.131 100.025 482.565 99.9375 481.998 99.6763ZM295.879 95.67C295.094 93.3186 296.403 90.8365 298.757 90.0526C301.112 89.3124 303.641 90.5752 304.383 92.9267C305.124 95.2781 303.86 97.8038 301.505 98.5441C301.069 98.7182 300.589 98.8053 300.153 98.8053C298.278 98.7618 296.533 97.5425 295.879 95.67ZM313.933 92.5783C313.889 90.0962 315.895 88.0931 318.337 88.0495C320.823 88.006 322.829 90.0091 322.873 92.4477C322.873 94.9298 320.91 96.9329 318.425 96.9764C315.939 97.02 313.977 95.0604 313.933 92.5783ZM332.379 92.4477C332.379 90.0091 334.385 88.006 336.827 88.006C339.313 87.9624 341.319 89.9656 341.319 92.4477C341.319 94.8862 339.313 96.8893 336.871 96.8893C334.385 96.8893 332.379 94.8862 332.379 92.4477ZM350.825 92.3606C350.825 89.922 352.831 87.9189 355.273 87.9189C357.759 87.9189 359.721 89.922 359.765 92.3606C359.765 94.8427 357.759 96.8022 355.317 96.8458C352.831 96.8022 350.825 94.8427 350.825 92.3606ZM369.228 92.317C369.228 89.8349 371.19 87.8754 373.676 87.8754C376.161 87.8318 378.124 89.8349 378.124 92.317C378.124 94.7991 376.118 96.7587 373.676 96.7587C371.234 96.7587 369.228 94.7556 369.228 92.317ZM387.674 92.2735C387.63 89.8349 389.636 87.8318 392.122 87.8318C394.564 87.8318 396.613 89.7914 396.613 92.2735C396.613 94.7556 394.607 96.7151 392.122 96.7151C389.68 96.7587 387.674 94.7556 387.674 92.2735ZM406.076 92.2735C406.076 89.7914 408.082 87.8318 410.568 87.8318C413.054 87.8318 415.016 89.8349 415.016 92.2735C415.016 94.712 413.01 96.7151 410.568 96.7151C408.082 96.7151 406.076 94.712 406.076 92.2735ZM424.522 92.2735C424.479 89.7914 426.528 87.8318 428.97 87.8318C431.456 87.8318 433.418 89.8349 433.418 92.2735C433.418 94.7556 431.413 96.7151 428.97 96.7151C426.528 96.7151 424.522 94.712 424.522 92.2735ZM442.925 92.1864C442.881 89.7478 444.844 87.7447 447.329 87.7012C449.771 87.6576 451.821 89.6607 451.821 92.0993C451.865 94.5814 449.902 96.5845 447.417 96.628C444.931 96.628 442.969 94.6249 442.925 92.1864ZM465.732 96.4103C463.246 96.3668 461.284 94.3201 461.327 91.8816C461.371 89.3995 463.421 87.4399 465.863 87.4834C468.348 87.527 470.311 89.5301 470.267 91.9687C470.223 94.4072 468.261 96.3668 465.819 96.3668C465.732 96.4103 465.732 96.4103 465.732 96.4103Z" fill="#D6D6D6"/>
<path d="M465.078 206.146C463.9 206.146 462.767 205.667 461.894 204.839C461.066 204.012 460.586 202.88 460.586 201.704C460.586 200.528 461.066 199.352 461.894 198.525C463.551 196.87 466.56 196.87 468.217 198.525C469.046 199.352 469.526 200.528 469.526 201.704C469.526 202.88 469.046 204.012 468.174 204.839C467.389 205.667 466.255 206.146 465.078 206.146Z" fill="#D6D6D6"/>
<path fill-rule="evenodd" clip-rule="evenodd" d="M433.2 79.1226C440.265 79.1226 446.021 84.8707 446.021 91.9251C446.021 98.9795 440.265 104.728 433.2 104.728C426.136 104.728 420.38 98.9795 420.38 91.9251C420.38 84.8707 426.092 79.1226 433.2 79.1226Z" fill="#D6D6D6"/>
<path fill-rule="evenodd" clip-rule="evenodd" d="M626.819 117.443V11.8009C626.819 6.74961 622.72 2.65631 617.662 2.65631H441.442C436.384 2.65631 432.285 6.74961 432.285 11.8009V117.443H626.819Z" fill="#F5F5F5"/>
<path d="M629.436 117.443H624.159V11.8009C624.159 8.1866 621.237 5.26904 617.618 5.26904H441.399C437.779 5.26904 434.858 8.1866 434.858 11.8009V117.443H429.581V11.8009C429.581 5.31258 434.858 0 441.399 0H617.618C624.116 0 629.436 5.26904 629.436 11.8009V117.443Z" fill="black"/>
<path fill-rule="evenodd" clip-rule="evenodd" d="M612.429 10.6252H443.405C438.782 10.6252 434.988 14.5878 434.988 19.465V30.7433H620.801V19.465C620.845 14.5878 617.095 10.6252 612.429 10.6252Z" fill="#91D2FF"/>
<path fill-rule="evenodd" clip-rule="evenodd" d="M432.241 117.443V274.164C432.241 276.69 434.291 278.736 436.82 278.736H622.197C624.726 278.736 626.776 276.69 626.776 274.164V117.443H432.241Z" fill="#F5F5F5"/>
<path d="M622.197 281.393H436.82C432.852 281.393 429.581 278.17 429.581 274.164V117.443H434.858V274.164C434.858 275.253 435.73 276.124 436.82 276.124H622.197C623.287 276.124 624.159 275.253 624.159 274.164V117.443H629.436V274.164C629.436 278.17 626.209 281.393 622.197 281.393Z" fill="#D6D6D6"/>
<path d="M604.1 56.5224H495.734V56.7401H604.1V56.5224Z" fill="#D6D6D6"/>
<path d="M604.1 59.7448H495.734C493.99 59.7448 492.594 58.3513 492.594 56.6095C492.594 54.8676 493.99 53.4742 495.734 53.4742H604.1C605.844 53.4742 607.239 54.8676 607.239 56.6095C607.239 58.3513 605.844 59.7448 604.1 59.7448Z" fill="#D6D6D6"/>
<path d="M604.1 75.3341H534.632C532.888 75.3341 531.492 73.9407 531.492 72.1988C531.492 70.457 532.888 69.0635 534.632 69.0635H604.143C605.887 69.0635 607.283 70.457 607.283 72.1988C607.239 73.9407 605.844 75.3341 604.1 75.3341Z" fill="#D6D6D6"/>
<path d="M574.533 90.9235H495.734C493.99 90.9235 492.594 89.5301 492.594 87.7883C492.594 86.0464 493.99 84.653 495.734 84.653H574.533C576.278 84.653 577.673 86.0464 577.673 87.7883C577.673 89.5301 576.278 90.9235 574.533 90.9235Z" fill="#D6D6D6"/>
<path d="M604.1 103.291H495.734V103.508H604.1V103.291Z" fill="#D6D6D6"/>
<path d="M604.1 123.888H495.734C493.99 123.888 492.594 122.494 492.594 120.752C492.594 119.011 493.99 117.617 495.734 117.617H604.1C605.844 117.617 607.239 119.011 607.239 120.752C607.239 122.494 605.844 123.888 604.1 123.888Z" fill="#D6D6D6"/>
<path d="M521.288 75.3341H495.734C493.99 75.3341 492.594 73.9407 492.594 72.1988C492.594 70.457 493.99 69.0635 495.734 69.0635H521.288C523.033 69.0635 524.428 70.457 524.428 72.1988C524.428 73.9407 523.033 75.3341 521.288 75.3341Z" fill="#D6D6D6"/>
<path d="M604.1 90.9235H585.697C583.953 90.9235 582.557 89.5301 582.557 87.7883C582.557 86.0464 583.953 84.653 585.697 84.653H604.1C605.844 84.653 607.239 86.0464 607.239 87.7883C607.239 89.5301 605.844 90.9235 604.1 90.9235Z" fill="#D6D6D6"/>
<path d="M604.1 106.513H495.734C493.99 106.513 492.594 105.119 492.594 103.378C492.594 101.636 493.99 100.242 495.734 100.242H604.1C605.844 100.242 607.239 101.636 607.239 103.378C607.239 105.119 605.844 106.513 604.1 106.513Z" fill="#D6D6D6"/>
<path d="M604.1 141.262H494.382C492.638 141.262 491.242 139.869 491.242 138.127C491.242 136.385 492.638 134.992 494.382 134.992H604.1C605.844 134.992 607.239 136.385 607.239 138.127C607.239 139.869 605.844 141.262 604.1 141.262Z" fill="#D6D6D6"/>
<path d="M604.1 156.939H495.734V157.157H604.1V156.939Z" fill="#D6D6D6"/>
<path d="M604.1 175.751H534.632C532.888 175.751 531.492 174.357 531.492 172.615C531.492 170.874 532.888 169.48 534.632 169.48H604.143C605.887 169.48 607.283 170.874 607.283 172.615C607.239 174.357 605.844 175.751 604.1 175.751Z" fill="#D6D6D6"/>
<path d="M574.533 191.34H495.734C493.99 191.34 492.594 189.947 492.594 188.205C492.594 186.463 493.99 185.069 495.734 185.069H574.533C576.278 185.069 577.673 186.463 577.673 188.205C577.673 189.947 576.278 191.34 574.533 191.34Z" fill="#D6D6D6"/>
<path d="M604.1 203.707H495.734V203.925H604.1V203.707Z" fill="#D6D6D6"/>
<path d="M604.318 222.867H495.734V223.085H604.318V222.867Z" fill="#D6D6D6"/>
<path d="M604.1 160.161H495.734C493.99 160.161 492.594 158.768 492.594 157.026C492.594 155.284 493.99 153.891 495.734 153.891H604.1C605.844 153.891 607.239 155.284 607.239 157.026C607.239 158.768 605.844 160.161 604.1 160.161Z" fill="#D6D6D6"/>
<path d="M521.288 175.751H495.734C493.99 175.751 492.594 174.357 492.594 172.615C492.594 170.874 493.99 169.48 495.734 169.48H521.288C523.033 169.48 524.428 170.874 524.428 172.615C524.428 174.357 523.033 175.751 521.288 175.751Z" fill="#D6D6D6"/>
<path d="M604.1 191.34H585.697C583.953 191.34 582.557 189.947 582.557 188.205C582.557 186.463 583.953 185.069 585.697 185.069H604.1C605.844 185.069 607.239 186.463 607.239 188.205C607.239 189.947 605.844 191.34 604.1 191.34Z" fill="#D6D6D6"/>
<path d="M604.1 206.929H495.734C493.99 206.929 492.594 205.536 492.594 203.794C492.594 202.052 493.99 200.659 495.734 200.659H604.1C605.844 200.659 607.239 202.052 607.239 203.794C607.239 205.536 605.844 206.929 604.1 206.929Z" fill="#D6D6D6"/>
<path d="M604.318 226.09H495.734C493.99 226.09 492.594 224.696 492.594 222.954C492.594 221.212 493.99 219.819 495.734 219.819H604.318C606.062 219.819 607.457 221.212 607.457 222.954C607.457 224.696 606.062 226.09 604.318 226.09Z" fill="#D6D6D6"/>
<path d="M604.1 241.679H495.734C493.99 241.679 492.594 240.285 492.594 238.544C492.594 236.802 493.99 235.408 495.734 235.408H604.1C605.844 235.408 607.239 236.802 607.239 238.544C607.239 240.285 605.844 241.679 604.1 241.679Z" fill="#D6D6D6"/>
<path d="M459.496 33.269H417.589C416.193 33.269 415.016 32.1368 415.016 30.6998C415.016 29.3063 416.15 28.1306 417.589 28.1306H459.496C460.891 28.1306 462.069 29.2627 462.069 30.6998C462.069 32.0932 460.935 33.269 459.496 33.269Z" fill="black"/>
<path d="M606.498 33.269H476.852C475.456 33.269 474.279 32.1368 474.279 30.6998C474.279 29.3063 475.413 28.1306 476.852 28.1306H606.498C607.893 28.1306 609.071 29.2627 609.071 30.6998C609.071 32.0932 607.893 33.269 606.498 33.269Z" fill="black"/>
<path fill-rule="evenodd" clip-rule="evenodd" d="M447.373 53.5178H481.474V115.658H447.373V53.5178Z" fill="#D6D6D6"/>
<path d="M441.311 384.64C439.916 384.64 438.651 383.682 438.303 382.288C437.866 380.633 438.913 378.935 440.57 378.5C449.51 376.279 454.961 372.229 456.792 366.525C460.804 353.853 447.329 335.868 443.535 331.078C437.605 331.47 417.371 332.341 401.846 327.464C387.325 322.935 377.6 310.002 377.6 295.327V241.026C377.6 215.726 356.974 195.172 331.681 195.172H305.386L271.023 194.737C269.715 194.737 236.834 195.172 235.613 195.172H127.597C102.26 195.172 81.6775 215.769 81.6775 241.026V295.371C81.6775 357.119 111.811 369.529 160.39 369.529C162.134 369.529 163.529 370.923 163.529 372.665C163.529 374.406 162.134 375.8 160.39 375.8C109.412 375.8 75.4416 362.127 75.4416 295.414V241.026C75.4416 212.286 98.859 188.902 127.64 188.902H235.57C236.485 188.902 259.161 188.597 270.979 188.466L305.386 188.902H331.638C360.419 188.902 383.836 212.286 383.836 241.026V295.371C383.836 305.299 389.985 317.274 403.721 321.585C420.554 326.854 444.408 324.808 444.669 324.808C445.672 324.721 446.632 325.113 447.286 325.853C448.158 326.854 468.436 350.5 462.767 368.441C460.281 376.366 453.304 381.809 442.096 384.596C441.835 384.64 441.573 384.64 441.311 384.64Z" fill="#91D2FF"/>
<path d="M477.68 471.47H197.151C195.407 471.47 194.011 470.076 194.011 468.335C194.011 466.593 195.407 465.199 197.151 465.199H477.68C479.425 465.199 480.82 466.593 480.82 468.335C480.82 470.076 479.425 471.47 477.68 471.47Z" fill="#91D2FF"/>
<path d="M596.294 472.384H453.827C425.046 472.384 401.628 449 401.628 420.26V375.756C401.628 374.189 402.806 372.839 404.376 372.665C449.248 367.265 451.167 336.304 450.687 326.942C450.644 326.071 450.949 325.243 451.559 324.634C452.17 324.024 452.955 323.676 453.827 323.676H596.294C625.075 323.676 648.492 347.06 648.492 375.8V420.347C648.492 449 625.075 472.384 596.294 472.384ZM407.864 378.456V420.26C407.864 445.56 428.491 466.114 453.783 466.114H596.25C621.586 466.114 642.169 445.517 642.169 420.26V375.756C642.169 350.456 621.543 329.903 596.25 329.903H456.923C456.661 341.573 451.559 372.011 407.864 378.456Z" fill="#91D2FF"/>
<path d="M265.964 146.793L302.638 209.934H229.246L265.964 146.793Z" fill="white"/>
<path d="M302.682 212.503C302.638 212.503 229.246 212.503 229.246 212.503C228.331 212.503 227.502 212.024 227.022 211.24C226.543 210.457 226.586 209.455 227.022 208.671L263.697 145.53C264.612 143.962 267.229 143.962 268.145 145.53L304.601 208.279C304.993 208.715 305.211 209.324 305.211 209.978C305.255 211.371 304.121 212.503 302.682 212.503ZM233.694 207.408H298.19L265.964 151.931L233.694 207.408Z" fill="#D6D6D6"/>
<path fill-rule="evenodd" clip-rule="evenodd" d="M390.944 245.685C391.511 242.332 399.186 245.642 402.108 241.461C404.986 237.281 409.129 229.181 413.708 224.086C417.284 220.037 419.726 218.295 419.726 218.295C419.726 218.295 408.039 194.693 414.58 195.129C417.632 195.346 419.333 199.614 424.174 202.052C425.656 202.793 423.868 196.783 423.956 191.122C424.043 185.069 426.005 179.365 427.749 180.454C429.625 181.586 435.25 188.989 446.501 193.387C464.206 200.267 486.01 195.869 502.014 220.995C515.009 241.374 504.412 264.976 499.572 273.772C496.301 279.738 462.374 224.696 462.33 225.436C462.069 231.097 456.618 239.11 452.083 246.382C447.547 253.61 441.748 260.578 446.283 262.189C450.818 263.8 453.871 261.318 453.871 261.318C453.871 261.318 471.663 250.867 473.058 263.321C474.453 275.775 459.452 284.484 459.452 284.484C459.452 284.484 462.897 311.265 466.124 320.54C469.395 329.859 470.18 340.484 480.602 341.486C491.024 342.444 486.184 343.707 486.184 343.707C486.184 343.707 540.301 333.604 559.314 371.75C574.926 403.059 588.314 470.773 590.32 496.204C592.325 521.678 590.014 537.703 581.162 544.757C572.309 551.812 556.48 558.561 497.522 557.908C438.564 557.255 356.625 557.299 352.351 557.473C348.078 557.647 346.508 557.081 343.673 553.902C340.839 550.723 341.798 549.199 338.746 546.325C335.693 543.451 333.775 545.367 333.862 541.883C333.905 538.4 337.001 532.303 337.001 532.303C337.001 532.303 332.815 530.605 331.202 526.512C329.588 522.418 336.086 517.149 336.086 517.149C336.086 517.149 330.111 514.928 330.286 509.79C330.46 504.652 341.493 502.213 349.691 503.781C357.89 505.348 365.739 504.434 365.739 504.434C365.739 504.434 363.123 497.815 359.067 495.768C355.012 493.722 348.252 487.843 350.607 484.838C352.918 481.834 365.783 486.188 365.783 486.188L357.541 415.165C357.541 415.165 284.323 417.734 268.363 408.938C252.359 400.142 249.481 386.077 256.545 359.731C263.653 333.386 292.914 269.766 292.914 269.766C292.914 269.766 280.791 255.178 279.308 247.296C277.826 239.371 281.663 231.141 285.98 230.836C290.341 230.531 289.469 245.816 296.926 246.425C304.339 247.035 311.229 241.722 306.52 232.404C301.81 223.085 291.737 224.086 290.254 221.038C288.728 217.99 292.87 210.718 302.072 212.373C311.273 213.984 314.543 217.511 314.543 217.511C314.543 217.511 309.529 194.649 316.549 195.041C323.57 195.433 327.495 199.919 327.495 199.919C327.495 199.919 329.719 195.346 333.077 198.786C336.391 202.226 337.743 208.149 337.743 208.149C337.743 208.149 346.028 202.226 346.682 208.584C347.293 214.942 348.078 251.999 341.319 275.819C334.559 299.638 315.677 342.183 315.677 342.183C315.677 342.183 360.593 340.658 387.717 340.833C414.842 341.05 429.799 343.837 430.976 334.823C432.154 325.809 424.959 294.282 424.959 294.282C424.959 294.282 406.12 296.895 398.445 279.607C390.726 262.32 395.523 255.788 395.523 255.788C395.523 255.788 390.334 249.038 390.944 245.685Z" fill="#F7F7F7"/>
<path fill-rule="evenodd" clip-rule="evenodd" d="M366.175 468.814L358.805 414.468L331.376 412.901C331.376 412.901 320.082 390.91 321.128 375.931C322.175 360.951 324.486 352.546 326.492 351.893C328.498 351.197 371.495 348.192 384.011 349.019C396.526 349.847 422.342 348.584 422.342 348.584C422.342 348.584 416.804 362.17 439.742 361.952C462.636 361.735 478.335 350.369 478.335 350.369C478.335 350.369 533.368 342.749 553.689 374.624C568.298 397.529 577.978 465.94 577.978 465.94C577.978 465.94 571.612 472.254 552.337 474.605C533.062 477 526.042 474.605 526.042 474.605L514.878 472.82L522.248 497.772L393.604 505.566C393.604 505.566 382.79 494.157 376.859 491.327C370.972 488.496 366.393 485.753 366.393 485.753L366.175 468.814Z" fill="#1A1A1A"/>
<path fill-rule="evenodd" clip-rule="evenodd" d="M78.4069 248.559C85.4714 248.559 91.2276 254.307 91.2276 261.362C91.2276 268.416 85.4714 274.164 78.4069 274.164C71.3425 274.164 65.5862 268.416 65.5862 261.362C65.5862 254.307 71.3425 248.559 78.4069 248.559Z" fill="#91D2FF"/>
<path fill-rule="evenodd" clip-rule="evenodd" d="M155.244 450.307L183.545 467.899L156.291 484.838L155.244 450.307Z" fill="#91D2FF"/>
<path d="M269.191 191.122C270.892 191.166 271.459 191.079 274.642 196.566C278.567 203.359 283.887 212.547 287.943 219.471C291.3 225.219 291.78 226.481 290.821 228.093C289.731 229.965 288.902 229.181 281.794 229.443C274.293 229.704 264.612 229.443 257.025 229.443C249.96 229.443 249.524 228.876 248.696 227.657C248.216 226.96 247.387 225.349 250.047 220.516C253.798 213.723 259.598 203.751 263.479 197.045C266.749 191.297 267.709 191.122 269.191 191.122Z" fill="#0094FF"/>
<path d="M622.546 408.111C626.121 417.212 635.018 423.613 645.353 423.613C655.731 423.613 664.584 417.168 668.159 408.111H622.546Z" fill="white"/>
<path d="M645.353 426.748C633.927 426.748 623.81 419.868 619.624 409.287L625.424 406.979C628.651 415.209 636.5 420.521 645.353 420.521C654.205 420.521 662.011 415.209 665.281 406.979L671.081 409.287C666.895 419.868 656.822 426.748 645.353 426.748Z" fill="#91D2FF"/>
<path d="M667.593 388.733C663.668 380.416 655.208 374.624 645.353 374.624C635.541 374.624 627.037 380.416 623.113 388.733H667.593Z" fill="white"/>
<path d="M664.758 390.083C661.226 382.593 653.638 377.759 645.353 377.759C637.067 377.759 629.479 382.593 625.947 390.083L620.278 387.427C624.813 377.759 634.625 371.532 645.309 371.532C655.993 371.532 665.805 377.759 670.34 387.427L664.758 390.083Z" fill="#91D2FF"/>
<path d="M668.203 408.111C669.293 405.324 669.904 402.319 669.904 399.14C669.904 395.439 669.075 391.912 667.593 388.733L668.203 408.111Z" fill="white"/>
<path d="M671.081 409.243L665.281 406.935C666.284 404.453 666.764 401.797 666.764 399.097C666.764 395.918 666.066 392.87 664.758 390.039L670.427 387.383C672.171 391.041 673.044 395.004 673.044 399.097C673 402.624 672.389 406.021 671.081 409.243Z" fill="#D6D6D6"/>
<path d="M623.156 388.733C621.674 391.868 620.845 395.395 620.845 399.14C620.845 402.319 621.455 405.324 622.546 408.111L623.156 388.733Z" fill="white"/>
<path d="M619.624 409.243C618.359 406.021 617.705 402.624 617.705 399.097C617.705 395.004 618.577 391.084 620.322 387.383L625.991 390.039C624.639 392.87 623.985 395.918 623.985 399.097C623.985 401.797 624.464 404.453 625.467 406.935L619.624 409.243Z" fill="#D6D6D6"/>
<path fill-rule="evenodd" clip-rule="evenodd" d="M645.265 385.336C652.853 385.336 658.958 391.476 658.958 399.01C658.958 406.587 652.81 412.683 645.265 412.683C637.678 412.683 631.573 406.543 631.573 399.01C631.529 391.476 637.678 385.336 645.265 385.336Z" fill="#0094FF"/>
<path fill-rule="evenodd" clip-rule="evenodd" d="M456.923 261.492C456.923 261.492 447.286 265.89 445.105 261.275C442.925 256.615 447.417 250.04 452.039 244.814C456.661 239.545 467.52 228.92 464.075 225.872C460.63 222.824 448.681 219.34 442.663 216.727C436.645 214.115 433.506 211.371 433.506 211.371L425.264 216.51C426.136 216.727 420.903 214.681 419.9 208.584C419.246 204.752 420.38 203.359 424.61 206.015C428.84 208.671 430.191 208.236 430.191 208.236C430.191 208.236 429.319 200.049 429.973 194.867C430.628 189.685 435.424 193.648 440.221 197.524C445.018 201.443 448.158 202.444 463.421 205.971C478.683 209.499 499.135 217.685 502.668 242.942C506.2 268.198 503.627 274.556 493.074 283.701C482.564 292.845 462.548 297.287 462.548 297.287L460.543 283.047C460.543 283.047 478.247 274.338 472.36 263.452C466.473 252.609 456.923 261.492 456.923 261.492Z" fill="#0094FF"/>
<path fill-rule="evenodd" clip-rule="evenodd" d="M520.024 561C516.012 561 512 561 507.988 561C480.559 559.302 452.344 561.392 423.476 560.129C403.242 559.258 380.827 560.086 360.375 559.258C353.66 558.997 345.941 558.561 342.104 556.123C339.138 554.25 339.095 550.854 337.22 548.546C335.475 546.412 333.295 546.456 332.074 543.669C330.678 540.49 331.245 535.831 332.946 533C331.245 530.649 328.498 529.342 328.28 525.641C328.062 522.114 330.111 519.37 331.856 516.975C329.588 515.756 327.713 514.319 327.626 511.401C327.495 507.352 331.376 504.434 334.777 502.953C341.493 499.992 353.311 500.123 360.855 500.95C358.326 496.03 346.77 494.244 347.685 485.579C348.34 479.569 357.41 480.048 363.515 481.573C361.16 459.843 358.587 438.419 356.145 416.776C332.728 415.862 306.258 417.822 284.803 415.209C273.857 413.859 264.351 411.203 258.028 405.411C251.705 399.576 249.568 389.56 250.658 377.15C251.574 366.655 254.321 356.683 257.112 347.321C265.528 319.277 277.39 294.152 289.643 270.289C285.065 264.932 279.657 259.228 276.953 250.04C274.599 242.027 276.038 227.396 286.111 228.006C289.818 228.223 291.431 232.055 292.129 234.886C292.652 236.976 292.521 241.679 294.135 243.334C296.446 245.729 302.202 244.118 303.729 241.548C306.258 237.281 303.947 231.576 301.069 229.094C297.362 225.915 288.204 226.22 287.681 219.95C287.376 216.205 290.167 213.374 292.827 211.719C298.409 208.236 306.476 209.324 311.535 211.937C308.526 202.488 311.142 190.6 321.564 192.124C324.399 192.516 325.227 194.432 327.146 196.13C333.251 193.169 336.827 199.396 337.83 204.36C350.738 199.135 349.255 214.332 348.732 224.827C348.34 232.621 348.34 238.5 347.86 244.858C346.77 258.357 344.807 270.288 342.06 280.914C336.696 301.511 329.239 320.41 320.212 337.262C319.689 338.263 318.468 339.134 318.861 340.397C342.104 338.22 373.152 337.48 400.015 338.394C408.954 338.699 420.205 339.265 425.656 335.956C431.674 332.298 427.575 320.192 426.31 314.139C424.915 307.477 423.912 301.859 422.517 295.893C398.881 296.503 391.817 279.607 392.863 257.138C392.863 257.051 392.863 256.964 392.863 256.92C392.209 253.262 386.671 249.866 388.415 244.466C389.68 240.59 395.48 241.853 398.663 240.242C401.803 238.674 403.024 233.971 405.117 230.444C407.079 227.135 410.219 223.564 412.487 221.3C417.589 216.205 425.438 210.979 433.68 209.499C435.73 209.15 440.57 211.24 443.274 212.155C446.414 213.2 449.902 214.637 452.213 215.508C456.574 217.163 465.252 219.645 466.037 226.177C466.517 230.401 463.682 233.841 461.589 236.41C455.484 243.813 448.289 249.082 446.893 260.447C449.597 261.057 451.385 258.836 454.481 259.097C457.054 257.355 458.624 255.744 461.415 255.091C468.784 253.349 473.625 258.313 475.238 261.754C479.381 270.506 471.183 278.867 466.299 282.002C464.729 283.004 462.2 283.614 461.851 284.659C460.935 287.315 463.682 291.278 463.203 293.585C478.596 289.753 491.33 283.788 498.656 271.769C505.677 260.273 507.813 240.46 500.88 225.48C494.949 212.634 483.001 204.926 468.087 200.746C460.673 198.656 452.475 198.09 444.887 195.172C438.826 192.821 434.291 189.076 429.93 185.157C428.796 184.155 428.927 183.763 428.142 184.503C426.834 185.679 426.354 189.119 426.354 191.166C426.398 196.087 430.366 201.704 426.354 204.099C426.223 204.099 426.049 204.099 425.918 204.099C420.816 204.447 418.853 198.307 415.234 198.743C415.539 201.573 415.801 203.489 417.022 206.102C417.458 207.06 420.336 211.197 417.24 212.111C413.751 213.156 411.571 206.886 410.786 203.881C408.954 196.957 411.789 190.164 418.81 194.083C419.987 194.737 420.772 196.087 421.95 195.869C421.688 194.171 421.165 192.167 421.295 190.077C421.47 186.289 424.348 177.275 427.967 177.144C429.537 177.101 431.064 179.104 432.415 180.497C436.558 184.634 440.963 187.9 446.239 190.077C453.958 193.256 463.464 193.866 471.444 196.304C487.841 201.312 499.877 210.326 505.982 224.348C513.046 240.547 510.953 261.928 502.842 274.904C494.731 287.881 480.995 294.718 464.031 298.724C467.389 311.134 467.476 326.419 474.497 334.997C479.948 341.66 494.295 339.265 505.023 339.657C512.872 339.962 520.285 341.268 526.87 343.228C566.204 354.941 573.269 397.573 582.383 440.291C585.305 454.052 588.401 468.509 590.407 483.053C592.282 496.378 594.506 515.799 591.061 530.257C584.476 558.474 553.384 559.432 520.024 561ZM334.734 236.845C335.214 240.068 337.699 247.253 333.6 247.296C330.242 247.34 329.981 239.415 329.37 235.713C327.757 225.828 326.884 217.293 325.14 207.887C324.442 204.055 323.309 197.088 319.776 197.219C314.674 197.393 315.546 203.489 316.201 208.584C316.593 211.371 316.549 214.55 317.073 216.161C317.334 216.945 318.381 218.034 319.079 219.035C322.698 224.304 324.05 230.009 324.66 237.978C324.835 240.285 325.402 244.901 322 244.64C318.948 244.422 319.776 238.631 319.34 235.06C318.032 224.217 313.104 215.551 302.639 214.593C297.275 214.114 294.571 215.551 292.827 219.514C300.545 222.475 308.831 225.828 309.79 235.757C310.008 238.282 309.703 241.461 308.438 243.769C305.996 248.254 298.845 251.651 292.609 248.429C287.507 245.772 288.466 238.369 285.675 233.057C282.404 234.276 281.314 237.107 281.009 240.416C279.744 252.827 288.379 261.1 294.397 267.153C296.359 269.113 300.153 271.377 299.978 273.598C299.63 277.561 294.745 274.948 293.524 273.816C280.311 300.553 265.877 329.99 258.289 363.564C255.804 374.537 253.274 389.778 258.943 398.749C264.002 406.717 275.994 409.112 288.161 410.332C300.763 411.594 314.456 411.507 327.844 411.464C324.312 402.972 320.474 392.042 319.602 379.632C318.73 366.786 321.782 354.941 325.402 345.144C319.515 345.71 314.151 345.84 307.566 346.494C303.903 346.842 292.129 350.021 292.609 344.926C292.914 342.008 298.278 342.357 301.548 342.052C305.429 341.66 308.918 341.312 312.232 340.92C321.739 323.632 330.504 304.341 336.304 282.568C340.621 266.456 342.845 248.08 343.673 228.223C343.935 221.735 344.458 214.942 343.019 208.628C341.406 208.584 340.534 209.237 339.226 209.499C340.577 218.6 341.842 228.18 342.104 238.674C342.191 241.766 342.976 246.556 339.88 246.687C336.173 246.861 336.958 239.197 336.74 235.321C336.129 224.086 335.562 212.721 332.51 204.142C331.943 202.575 331.114 200.18 328.934 200.572C330.853 210.544 332.902 225.088 334.734 236.845ZM418.592 290.755C428.404 291.452 435.642 287.446 441.573 283.831C443.448 282.699 445.411 280.957 446.937 280.696C448.245 280.478 449.292 280.957 450.731 280.914C459.801 280.783 467.171 276.907 470.136 270.68C472.491 265.673 469.395 260.142 464.554 260.012C461.589 259.925 459.627 261.884 458.101 263.147C455.746 265.063 452.344 269.766 449.859 265.368C443.841 267.371 440.919 262.712 441.835 257.573C443.361 249.125 450.687 240.982 456.095 234.625C457.97 232.447 461.153 229.138 460.979 227.048C460.848 225.219 457.446 223.216 455.833 222.388C451.21 219.95 445.978 218.338 441.573 216.814C439.131 215.987 434.945 214.158 432.895 215.029C422.168 219.558 415.67 223.564 410.132 232.621C408.562 235.234 407.428 238.544 405.248 241.287C402.544 244.684 398.183 245.816 393.43 246.861C393.91 250.345 397.834 252.348 398.314 255.788C398.663 258.183 397.398 260.491 397.878 263.8C400.931 264.061 402.806 264.584 405.684 264.236C409.783 263.757 413.533 259.533 416.15 260.012C417.24 260.186 418.156 261.449 418.156 262.45C418.156 264.54 414.972 265.977 413.272 266.892C409.216 269.069 403.809 270.158 398.314 268.895C399.753 282.002 406.774 289.884 418.592 290.755ZM447.547 286.052C441.835 289.928 435.73 293.411 427.924 295.197C428.447 304.428 435.076 319.713 434.16 330.599C433.549 337.741 429.058 340.92 422.996 342.4C420.467 362.257 443.666 362.039 458.449 357.336C468.261 354.201 475.456 348.453 480.515 344.186C466.997 341.268 464.642 326.985 461.546 313.007C459.845 305.256 458.144 296.677 457.098 288.97C456.967 287.925 457.403 286.27 456.225 285.617C453.783 286.183 450.6 286.052 447.547 286.052ZM331.202 344.621C327.321 354.245 323.788 366.089 324.748 378.892C325.663 391.563 329.545 402.45 333.687 411.377C340.665 411.769 348.209 411.551 355.535 411.594C355.317 409.025 354.314 404.584 357.759 404.714C360.463 404.801 360.506 409.417 360.899 412.727C363.602 436.328 366.437 461.367 368.922 483.532C376.903 486.972 383.705 491.544 389.898 497.336C391.86 499.209 393.953 502.518 395.916 502.91C397.573 503.258 400.887 502.605 403.503 502.474C441.311 500.471 481.256 496.77 517.887 494.898C513.352 476.347 508.686 457.274 503.845 438.811C503.235 436.416 502.057 432.148 505.415 432.148C508.468 432.148 508.816 437.94 509.427 440.378C511.956 450.481 514.66 460.192 517.015 469.772C524.82 471.775 533.411 473.386 542.438 473.342C558.965 473.255 572.004 467.072 581.249 459.756C571.088 417.386 568.516 367.352 532.888 351.109C521.157 345.753 505.415 344.142 486.969 344.882C482.608 350.718 475.151 355.42 467.127 359.34C449.902 367.787 415.801 370.008 418.068 343.315C389.505 343.837 359.111 342.27 331.202 344.621ZM339.226 516.496C339.356 520.111 332.772 520.851 333.644 525.641C334.123 528.254 338.92 527.949 339.226 530.997C339.574 534.176 335.083 537.137 336.783 541.448C337.35 542.972 340.185 543.669 341.449 545.454C342.932 547.501 343.063 550.244 344.589 551.463C347.555 553.815 357.017 553.946 363.297 554.12C384.97 554.816 406.12 554.773 426.834 554.773C455.746 554.773 483.349 555.644 511.564 555.644C539.996 555.644 569.519 554.904 581.336 539.837C584.65 535.613 586.177 530.257 586.918 524.03C589.622 501.647 585.261 486.58 582.252 465.722C582.252 465.591 582.208 465.461 582.034 465.504C575.013 470.599 564.94 475.737 553.733 477.523C542.176 479.352 529.443 477.871 518.279 475.737C520.198 481.703 521.419 488.322 523.163 494.462C526.303 494.288 530.62 494.114 534.981 493.809C538.513 493.548 544.4 492.285 544.357 496.03C544.313 498.773 539.691 498.773 537.467 498.904C533.586 499.165 530.053 499.47 528.309 499.557C508.947 500.471 490.545 501.995 472.578 503.128C450.556 504.478 429.319 506.35 407.908 507.352C404.681 507.482 401.149 507.221 398.314 507.787C396.744 508.092 396.221 509.137 394.52 508.919C393.343 508.745 391.511 506.35 390.29 505.131C385.973 500.82 381.656 497.118 377.121 493.983C370.58 489.498 363.559 485.317 353.049 485.971C353.878 491.065 358.5 491.501 362.207 494.419C364.431 496.204 366.001 499.426 367.789 501.995C368.704 503.302 369.664 503.302 369.359 504.87C368.835 507.744 364.038 506.35 360.899 506.002C350.389 504.826 336.522 504.739 333.033 511.358C334.69 513.84 339.095 513.404 339.226 516.496Z" fill="black"/>
<path fill-rule="evenodd" clip-rule="evenodd" d="M426.616 223.041C431.107 222.388 437.387 228.659 437.997 233.492C438.521 237.76 437.3 243.029 433.767 240.373C432.503 239.458 433.288 237.15 432.895 234.363C432.633 232.578 431.064 230.314 429.319 229.225C427.793 228.267 424.261 228.136 424.174 225.436C424.086 223.477 425.7 223.172 426.616 223.041Z" fill="black"/>
<path fill-rule="evenodd" clip-rule="evenodd" d="M462.941 264.889C463.333 264.889 465.121 264.671 465.601 266.239C466.473 268.939 463.508 270.071 461.371 271.116C459.322 272.161 453.26 275.47 453.129 271.116C453.042 268.939 456.007 267.981 457.359 267.327C458.667 266.718 460.543 265.063 462.941 264.889Z" fill="black"/>
<path d="M343.15 518.674C342.234 518.674 341.406 518.194 340.926 517.411C340.49 516.627 340.49 515.625 340.926 514.842L389.113 431.495C389.549 430.711 390.421 430.232 391.337 430.232C392.253 430.232 393.081 430.711 393.561 431.495L441.748 514.842C442.184 515.625 442.184 516.627 441.748 517.411C441.311 518.194 440.439 518.674 439.524 518.674H343.15Z" fill="#0094FF"/>
<path d="M391.337 432.714L439.524 516.061H343.15L391.337 432.714ZM391.337 427.619C389.505 427.619 387.805 428.577 386.889 430.189L338.702 513.535C337.786 515.103 337.786 517.062 338.702 518.673C339.618 520.241 341.319 521.243 343.15 521.243H439.567C441.399 521.243 443.099 520.285 444.015 518.673C444.931 517.106 444.931 515.146 444.015 513.535L395.785 430.189C394.869 428.577 393.168 427.619 391.337 427.619Z" fill="black"/>
<path fill-rule="evenodd" clip-rule="evenodd" d="M444.015 532.129C420.205 532.129 400.887 512.795 400.887 489.062C400.887 465.286 420.249 445.996 444.015 445.996C467.825 445.996 487.143 465.33 487.143 489.062C487.143 512.838 467.781 532.129 444.015 532.129Z" fill="#F5F5F5"/>
<path d="M444.015 448.521C466.43 448.521 484.614 466.68 484.614 489.062C484.614 511.445 466.43 529.603 444.015 529.603C421.601 529.603 403.416 511.445 403.416 489.062C403.416 466.68 421.601 448.521 444.015 448.521ZM444.015 443.426C418.81 443.426 398.314 463.893 398.314 489.062C398.314 514.232 418.81 534.698 444.015 534.698C469.221 534.698 489.716 514.232 489.716 489.062C489.716 463.893 469.221 443.426 444.015 443.426Z" fill="black"/>
<path fill-rule="evenodd" clip-rule="evenodd" d="M467.869 531.476C466.473 531.476 465.296 530.344 465.296 528.907V475.912C465.296 474.518 466.43 473.342 467.869 473.342H520.939C522.335 473.342 523.512 474.475 523.512 475.912V528.907C523.512 530.3 522.378 531.476 520.939 531.476H467.869Z" fill="#91D2FF"/>
<path d="M520.939 475.912V528.907H467.869V475.912H520.939ZM520.939 470.817H467.869C465.034 470.817 462.723 473.125 462.723 475.955V528.95C462.723 531.781 465.034 534.089 467.869 534.089H520.939C523.774 534.089 526.085 531.781 526.085 528.95V475.955C526.085 473.081 523.774 470.817 520.939 470.817Z" fill="black"/>
<path fill-rule="evenodd" clip-rule="evenodd" d="M423.432 235.539C425.177 236.802 425.482 239.327 424.13 241.156L421.688 244.422C420.336 246.251 417.85 246.687 416.106 245.38C414.362 244.118 414.057 241.592 415.408 239.763L417.85 236.497C419.246 234.668 421.732 234.233 423.432 235.539Z" fill="black"/>
<path fill-rule="evenodd" clip-rule="evenodd" d="M9.59372 415.906C5.71263 415.906 2.57286 412.77 2.57286 408.895V273.946C2.57286 267.632 7.71859 262.494 14.0417 262.494H209.667C215.99 262.494 221.135 267.632 221.135 273.946V408.895C221.135 412.77 217.996 415.906 214.115 415.906H9.59372Z" fill="white"/>
<path d="M209.71 265.063C214.638 265.063 218.65 269.069 218.65 273.99V408.895C218.65 411.333 216.644 413.336 214.202 413.336H9.59373C7.10808 413.336 5.14573 411.333 5.14573 408.895V273.946C5.14573 269.026 9.15765 265.019 14.0853 265.019H209.71V265.063ZM209.71 259.925H14.0417C6.32314 259.925 0 266.239 0 273.946V408.895C0 414.164 4.31718 418.475 9.59373 418.475H214.158C219.435 418.475 223.752 414.164 223.752 408.895V273.946C223.752 266.239 217.429 259.925 209.71 259.925Z" fill="black"/>
<path fill-rule="evenodd" clip-rule="evenodd" d="M203.823 268.852H13.562C8.896 268.852 5.10212 272.858 5.10212 277.778V289.144H212.239V277.778C212.283 272.814 208.489 268.852 203.823 268.852Z" fill="#91D2FF"/>
<path d="M239.538 291.669H197.631C196.235 291.669 195.058 290.537 195.058 289.1C195.058 287.707 196.192 286.531 197.631 286.531H239.538C240.933 286.531 242.111 287.663 242.111 289.1C242.111 290.537 240.933 291.669 239.538 291.669Z" fill="black"/>
<path d="M179.752 291.669H14.3034C12.9079 291.669 11.7305 290.537 11.7305 289.1C11.7305 287.707 12.8643 286.531 14.3034 286.531H179.752C181.147 286.531 182.324 287.663 182.324 289.1C182.324 290.537 181.191 291.669 179.752 291.669Z" fill="black"/>
<path d="M135.315 308.347H26.906C25.5106 308.347 24.3332 307.215 24.3332 305.778C24.3332 304.385 25.467 303.209 26.906 303.209H135.359C136.754 303.209 137.932 304.341 137.932 305.778C137.888 307.215 136.754 308.347 135.315 308.347Z" fill="#D6D6D6"/>
<path d="M135.315 323.937H65.8042C64.4088 323.937 63.2314 322.805 63.2314 321.368C63.2314 319.974 64.3652 318.798 65.8042 318.798H135.359C136.754 318.798 137.932 319.931 137.932 321.368C137.888 322.805 136.754 323.937 135.315 323.937Z" fill="#D6D6D6"/>
<path d="M105.749 339.526H26.906C25.5106 339.526 24.3332 338.394 24.3332 336.957C24.3332 335.564 25.467 334.388 26.906 334.388H105.749C107.144 334.388 108.322 335.52 108.322 336.957C108.322 338.394 107.144 339.526 105.749 339.526Z" fill="#D6D6D6"/>
<path d="M135.315 355.116H26.906C25.5106 355.116 24.3332 353.983 24.3332 352.546C24.3332 351.153 25.467 349.977 26.906 349.977H135.359C136.754 349.977 137.932 351.109 137.932 352.546C137.888 353.983 136.754 355.116 135.315 355.116Z" fill="#D6D6D6"/>
<path d="M135.315 374.276H75.9213C74.5258 374.276 73.3484 373.144 73.3484 371.707C73.3484 370.313 74.4822 369.137 75.9213 369.137H135.315C136.711 369.137 137.888 370.27 137.888 371.707C137.888 373.144 136.754 374.276 135.315 374.276Z" fill="#D6D6D6"/>
<path d="M135.315 308.347H26.906C25.5106 308.347 24.3332 307.215 24.3332 305.778C24.3332 304.385 25.467 303.209 26.906 303.209H135.359C136.754 303.209 137.932 304.341 137.932 305.778C137.888 307.215 136.754 308.347 135.315 308.347Z" fill="#D6D6D6"/>
<path d="M52.4602 323.937H26.906C25.5106 323.937 24.3332 322.805 24.3332 321.368C24.3332 319.974 25.467 318.798 26.906 318.798H52.5039C53.8993 318.798 55.0767 319.931 55.0767 321.368C55.0331 322.805 53.8993 323.937 52.4602 323.937Z" fill="#D6D6D6"/>
<path d="M135.315 339.526H116.913C115.517 339.526 114.34 338.394 114.34 336.957C114.34 335.564 115.474 334.388 116.913 334.388H135.315C136.711 334.388 137.888 335.52 137.888 336.957C137.888 338.394 136.754 339.526 135.315 339.526Z" fill="#D6D6D6"/>
<path d="M135.315 355.116H26.906C25.5106 355.116 24.3332 353.983 24.3332 352.546C24.3332 351.153 25.467 349.977 26.906 349.977H135.359C136.754 349.977 137.932 351.109 137.932 352.546C137.888 353.983 136.754 355.116 135.315 355.116Z" fill="#D6D6D6"/>
<path d="M135.315 374.276H75.9213C74.5258 374.276 73.3484 373.144 73.3484 371.707C73.3484 370.313 74.4822 369.137 75.9213 369.137H135.315C136.711 369.137 137.888 370.27 137.888 371.707C137.888 373.144 136.754 374.276 135.315 374.276Z" fill="#D6D6D6"/>
<path d="M135.315 389.865H88.6112C87.2157 389.865 86.0383 388.733 86.0383 387.296C86.0383 385.859 87.1721 384.727 88.6112 384.727H135.315C136.711 384.727 137.888 385.859 137.888 387.296C137.888 388.733 136.754 389.865 135.315 389.865Z" fill="#D6D6D6"/>
<path fill-rule="evenodd" clip-rule="evenodd" d="M154.372 311.134H209.1V358.817H154.372V311.134Z" fill="#91D2FF"/>
<path fill-rule="evenodd" clip-rule="evenodd" d="M114.035 75.3342C116.913 75.3342 119.224 77.5115 119.224 80.1677C119.224 82.824 116.913 85.0013 114.035 85.0013C111.2 85.0013 108.845 82.824 108.845 80.1677C108.845 77.5115 111.156 75.3342 114.035 75.3342Z" fill="#91D2FF"/>
<path fill-rule="evenodd" clip-rule="evenodd" d="M137.278 75.3342C140.156 75.3342 142.467 77.5115 142.467 80.1677C142.467 82.824 140.156 85.0013 137.278 85.0013C134.399 85.0013 132.088 82.824 132.088 80.1677C132.088 77.5115 134.399 75.3342 137.278 75.3342Z" fill="#91D2FF"/>
<path fill-rule="evenodd" clip-rule="evenodd" d="M137.278 75.3342C140.156 75.3342 142.467 77.5115 142.467 80.1677C142.467 82.824 140.156 85.0013 137.278 85.0013C134.399 85.0013 132.088 82.824 132.088 80.1677C132.088 77.5115 134.399 75.3342 137.278 75.3342Z" fill="#91D2FF"/>
<path fill-rule="evenodd" clip-rule="evenodd" d="M160.477 75.3342C163.311 75.3342 165.666 77.5115 165.666 80.1677C165.666 82.824 163.355 85.0013 160.477 85.0013C157.642 85.0013 155.288 82.824 155.288 80.1677C155.331 77.5115 157.642 75.3342 160.477 75.3342Z" fill="#91D2FF"/>
<path fill-rule="evenodd" clip-rule="evenodd" d="M183.938 75.3342C186.816 75.3342 189.127 77.5115 189.127 80.1677C189.127 82.824 186.816 85.0013 183.938 85.0013C181.06 85.0013 178.749 82.824 178.749 80.1677C178.749 77.5115 181.06 75.3342 183.938 75.3342Z" fill="#91D2FF"/>
<path fill-rule="evenodd" clip-rule="evenodd" d="M183.938 75.3342C186.816 75.3342 189.127 77.5115 189.127 80.1677C189.127 82.824 186.816 85.0013 183.938 85.0013C181.06 85.0013 178.749 82.824 178.749 80.1677C178.749 77.5115 181.06 75.3342 183.938 75.3342Z" fill="#91D2FF"/>
<path fill-rule="evenodd" clip-rule="evenodd" d="M207.137 75.3342C210.015 75.3342 212.327 77.5115 212.327 80.1677C212.327 82.824 210.015 85.0013 207.137 85.0013C204.259 85.0013 201.948 82.824 201.948 80.1677C201.992 77.5115 204.303 75.3342 207.137 75.3342Z" fill="#91D2FF"/>
<path fill-rule="evenodd" clip-rule="evenodd" d="M114.035 97.2812C116.913 97.2812 119.224 99.4585 119.224 102.115C119.224 104.771 116.913 106.948 114.035 106.948C111.2 106.948 108.845 104.771 108.845 102.115C108.845 99.4585 111.156 97.2812 114.035 97.2812Z" fill="#91D2FF"/>
<path fill-rule="evenodd" clip-rule="evenodd" d="M137.278 97.2812C140.156 97.2812 142.467 99.4585 142.467 102.115C142.467 104.771 140.156 106.948 137.278 106.948C134.399 106.948 132.088 104.771 132.088 102.115C132.088 99.4585 134.399 97.2812 137.278 97.2812Z" fill="#91D2FF"/>
<path fill-rule="evenodd" clip-rule="evenodd" d="M137.278 97.2812C140.156 97.2812 142.467 99.4585 142.467 102.115C142.467 104.771 140.156 106.948 137.278 106.948C134.399 106.948 132.088 104.771 132.088 102.115C132.088 99.4585 134.399 97.2812 137.278 97.2812Z" fill="#91D2FF"/>
<path fill-rule="evenodd" clip-rule="evenodd" d="M160.477 97.2812C163.311 97.2812 165.666 99.4585 165.666 102.115C165.666 104.771 163.355 106.948 160.477 106.948C157.642 106.948 155.288 104.771 155.288 102.115C155.331 99.4585 157.642 97.2812 160.477 97.2812Z" fill="#91D2FF"/>
<path fill-rule="evenodd" clip-rule="evenodd" d="M183.938 97.2812C186.816 97.2812 189.127 99.4585 189.127 102.115C189.127 104.771 186.816 106.948 183.938 106.948C181.06 106.948 178.749 104.771 178.749 102.115C178.749 99.4585 181.06 97.2812 183.938 97.2812Z" fill="#91D2FF"/>
<path fill-rule="evenodd" clip-rule="evenodd" d="M183.938 97.2812C186.816 97.2812 189.127 99.4585 189.127 102.115C189.127 104.771 186.816 106.948 183.938 106.948C181.06 106.948 178.749 104.771 178.749 102.115C178.749 99.4585 181.06 97.2812 183.938 97.2812Z" fill="#91D2FF"/>
<path fill-rule="evenodd" clip-rule="evenodd" d="M207.137 97.2812C210.015 97.2812 212.327 99.4585 212.327 102.115C212.327 104.771 210.015 106.948 207.137 106.948C204.259 106.948 201.948 104.771 201.948 102.115C201.992 99.4585 204.303 97.2812 207.137 97.2812Z" fill="#91D2FF"/>
<path fill-rule="evenodd" clip-rule="evenodd" d="M521.157 497.989C520.154 498.599 393.823 505.784 393.823 505.784C393.823 505.784 384.142 493.286 376.859 489.324C369.577 485.361 352.962 479.047 350.084 483.968C347.249 488.932 352.351 491.414 355.666 493.765C358.98 496.117 365.259 504.695 365.259 504.695C365.259 504.695 347.555 498.817 336.696 505.349C325.881 511.924 335.562 516.017 335.562 516.017C335.562 516.017 329.632 521.46 331.114 526.25C332.597 531.041 335.78 532.042 335.78 532.042C335.78 532.042 331.202 537.268 334.908 542.275C338.571 547.327 339.836 548.285 339.836 548.285C339.836 548.285 335.388 555.034 348.994 556.079C362.599 557.124 503.976 559.302 530.271 558.082C556.567 556.863 583.996 553.771 588.008 529.56C592.064 505.392 583.56 462.108 583.56 462.108C583.56 462.108 574.533 486.842 561.495 492.633C552.337 496.683 543.223 495.551 543.223 495.551C543.223 495.551 522.16 497.38 521.157 497.989Z" fill="#F7F7F7"/>
<path fill-rule="evenodd" clip-rule="evenodd" d="M520.154 561C516.143 561 512.131 561 508.119 561C494.775 560.608 480.21 560.347 465.775 560.347C452.126 560.347 437.605 560.826 422.953 560.129C402.719 559.171 379.563 559.955 359.416 558.997C352.046 558.648 345.025 558.344 341.362 555.426C339.095 553.641 338.964 550.505 337.35 548.502C336.129 547.022 333.338 546.412 332.205 544.061C330.591 540.664 331.463 536.397 333.077 532.695C331.507 530.91 329.675 529.995 328.847 527.339C327.669 523.464 329.632 519.544 331.987 517.106C325.14 514.014 328.193 506.35 333.338 503.52C339.836 499.992 352.831 499.949 360.986 500.863C359.765 497.772 355.317 496.726 352.308 494.201C350.127 492.372 347.162 488.758 347.86 485.056C348.776 480.31 355.535 479.787 361.465 481.05C374.461 483.793 382.79 490.978 390.901 498.425C391.904 499.339 394.651 502.605 395.785 502.866C397.442 503.258 400.931 502.562 403.809 502.431C406.425 502.3 409.26 501.952 411.833 501.778C444.975 499.339 477.419 497.336 509.471 495.333C515.096 494.985 520.809 495.507 525.518 494.898C529.443 494.375 532.975 493.94 537.99 493.548C541.261 493.33 544.313 492.982 544.444 495.768C544.575 498.773 540.17 498.73 537.772 498.904C533.847 499.165 530.577 499.252 528.396 499.339C490.894 501.342 454.132 504.129 417.371 506.698C411.004 507.134 404.288 506.742 398.663 507.831C396.962 508.135 396.526 509.093 394.869 508.963C393.343 508.832 391.947 506.524 390.639 505.174C386.322 500.776 381.83 497.205 377.252 494.027C370.885 489.672 364.038 485.448 353.18 486.014C354.052 491.153 358.849 491.675 362.556 494.68C364.605 496.335 365.565 498.163 367.222 500.689C368.268 502.3 369.882 503.432 369.446 505.131C368.792 507.7 363.995 506.35 360.986 506.002C350.476 504.869 336.871 504.826 333.12 511.14C334.472 513.753 339.095 513.448 339.356 516.278C339.705 520.154 333.12 520.372 333.775 525.423C334.167 528.428 338.877 527.731 339.356 530.779C339.923 534.306 335.388 536.789 336.914 541.23C337.525 543.059 340.141 543.277 341.58 545.236C343.15 547.327 343.107 550.201 344.72 551.463C347.729 553.858 357.236 553.946 363.471 554.12C384.927 554.773 406.338 554.773 427.008 554.773C455.615 554.773 483.437 555.644 511.738 555.644C539.255 555.644 569.606 555.034 581.511 539.837C584.781 535.7 586.351 530.213 587.093 524.03C589.84 501.255 585.348 486.363 582.426 465.722C572.876 472.08 559.576 478.394 542.525 478.394C537.162 478.394 531.056 478.307 526.042 477.044C524.341 476.608 522.509 475.041 519.806 475.694C519.239 473.734 518.846 471.601 517.8 470.12C525.126 471.513 533.716 473.255 542.307 473.255C558.965 473.255 571.786 466.941 581.336 459.887C578.851 447.171 576.103 434.717 573.53 422.045C575.536 422.786 577.499 423.57 579.33 424.484C582.339 439.551 585.915 454.792 588.706 470.555C591.497 486.537 594.113 503.694 592.718 521.548C591.279 539.837 583.299 548.72 569.737 554.033C556.044 559.432 538.121 560.434 520.154 561Z" fill="black"/>
<path fill-rule="evenodd" clip-rule="evenodd" d="M514.791 461.237C514.398 460.801 514.093 460.279 513.439 460.104C511.651 460.845 512.349 464.067 510.561 464.764C508.729 458.014 506.505 449.436 504.543 441.597C503.976 439.246 500.749 430.58 506.331 432.017C508.206 432.496 508.86 437.243 509.253 438.68C511.128 446.518 513.003 453.747 514.791 461.237Z" fill="black"/>
<path fill-rule="evenodd" clip-rule="evenodd" d="M515.009 462.369C515.227 462.369 515.183 462.63 515.227 462.804C515.576 463.806 515.619 465.069 516.099 465.94C515.837 467.159 515.183 463.458 515.009 462.369Z" fill="black"/>
</g>
<defs>
<clipPath id="clip0_189_1480">
<rect width="673" height="561" fill="white"/>
</clipPath>
</defs>
</svg>
