<svg width="20" height="20" viewBox="0 0 20 20" fill="none" xmlns="http://www.w3.org/2000/svg">
<path fill-rule="evenodd" clip-rule="evenodd" d="M10.0001 4.35663C8.85591 2.93832 7.11502 2.31506 5.50593 2.54751C4.48561 2.69491 3.51366 3.18793 2.79921 4.03938C2.08248 4.89355 1.66675 6.0576 1.66675 7.47693C1.66675 10.3714 3.80034 12.8847 5.69567 14.5737C6.66986 15.4418 7.64019 16.144 8.36515 16.6285C8.72845 16.8713 9.03216 17.0608 9.24661 17.1905C9.35389 17.2553 9.43897 17.3053 9.49817 17.3396C9.52777 17.3568 9.55092 17.37 9.56714 17.3792L9.58623 17.39L9.59178 17.3931L9.59353 17.3941C9.59377 17.3942 9.5946 17.3947 10.0001 16.6666L9.5946 17.3947C9.84669 17.5351 10.1535 17.5351 10.4056 17.3947L10.0001 16.6666C10.4056 17.3947 10.4053 17.3948 10.4056 17.3947L10.4084 17.3931L10.4139 17.39L10.433 17.3792C10.4492 17.37 10.4724 17.3568 10.502 17.3396C10.5612 17.3053 10.6463 17.2553 10.7535 17.1905C10.968 17.0608 11.2717 16.8713 11.635 16.6285C12.36 16.144 13.3303 15.4418 14.3045 14.5737C16.1998 12.8847 18.3334 10.3714 18.3334 7.47693C18.3334 6.0576 17.9177 4.89355 17.201 4.03938C16.4865 3.18793 15.5146 2.69491 14.4942 2.54751C12.8851 2.31506 11.1443 2.93832 10.0001 4.35663ZM10.0001 15.6979C9.81416 15.5836 9.57243 15.4307 9.29126 15.2428C8.60997 14.7875 7.7053 14.1321 6.80449 13.3294C4.94982 11.6766 3.33341 9.5951 3.33341 7.47693C3.33341 6.38996 3.64685 5.62208 4.07595 5.11069C4.50734 4.59658 5.09789 4.29043 5.74423 4.19706C7.04441 4.00923 8.55081 4.68884 9.23313 6.29441C9.36387 6.60207 9.6658 6.80182 10.0001 6.80182C10.3344 6.80182 10.6363 6.60207 10.767 6.29441C11.4494 4.68884 12.9558 4.00923 14.2559 4.19706C14.9023 4.29043 15.4928 4.59658 15.9242 5.11069C16.3533 5.62208 16.6667 6.38996 16.6667 7.47693C16.6667 9.5951 15.0503 11.6766 13.1957 13.3294C12.2949 14.1321 11.3902 14.7875 10.7089 15.2428C10.4277 15.4307 10.186 15.5836 10.0001 15.6979Z" fill="#5D769D"/>
</svg>
