<svg width="15" height="16" viewBox="0 0 15 16" fill="none" xmlns="http://www.w3.org/2000/svg">
<path d="M6.25 8H7.47966C7.8286 8 8.02589 8.47646 7.82664 8.76292C7.35799 9.43669 7 10.2954 7 11C7 12.125 8.5 12.5 9.25 11M7.46857 4.7187H8.03107M7.46857 5.2812H8.03107M14.5 8C14.5 11.7279 11.4779 14.75 7.75 14.75H1.5431C1.28073 14.75 1.09946 14.4875 1.19242 14.2421L1.86266 12.4732C2.03457 12.0194 1.9662 11.5156 1.74419 11.0841C1.26851 10.1597 1 9.11121 1 8C1 4.27208 4.02208 1.25 7.75 1.25C11.4779 1.25 14.5 4.27208 14.5 8ZM8.5 5C8.5 5.41421 8.16421 5.75 7.75 5.75C7.33579 5.75 7 5.41421 7 5C7 4.58579 7.33579 4.25 7.75 4.25C8.16421 4.25 8.5 4.58579 8.5 5Z" stroke="#5D769D" stroke-linecap="round"/>
</svg>
