<svg width="24" height="24" viewBox="0 0 24 24" fill="none" xmlns="http://www.w3.org/2000/svg">
<path fill-rule="evenodd" clip-rule="evenodd" d="M12 5.22797C10.627 3.526 8.53793 2.7781 6.60702 3.05704C5.38263 3.23391 4.21629 3.82554 3.35895 4.84728C2.49888 5.87228 2 7.26914 2 8.97234C2 12.4456 4.56031 15.4617 6.83471 17.4884C8.00373 18.5302 9.16813 19.3728 10.0381 19.9542C10.474 20.2456 10.8385 20.473 11.0958 20.6286C11.2246 20.7064 11.3267 20.7664 11.3977 20.8076C11.4332 20.8281 11.461 20.844 11.4805 20.8551L11.5034 20.868L11.51 20.8717L11.5121 20.8729C11.5124 20.8731 11.5134 20.8736 12 20L11.5134 20.8736C11.8159 21.0421 12.1841 21.0421 12.4866 20.8736L12 20C12.4866 20.8736 12.4863 20.8738 12.4866 20.8736L12.49 20.8717L12.4966 20.868L12.5195 20.8551C12.539 20.844 12.5668 20.8281 12.6023 20.8076C12.6733 20.7664 12.7754 20.7064 12.9042 20.6286C13.1615 20.473 13.526 20.2456 13.9619 19.9542C14.8319 19.3728 15.9963 18.5302 17.1653 17.4884C19.4397 15.4617 22 12.4456 22 8.97234C22 7.26914 21.5011 5.87228 20.641 4.84728C19.7837 3.82554 18.6174 3.23391 17.393 3.05704C15.4621 2.7781 13.373 3.526 12 5.22797ZM12 18.8375C11.7769 18.7004 11.4868 18.5169 11.1494 18.2914C10.3319 17.745 9.24627 16.9585 8.1653 15.9953C5.93969 14.012 4 11.5141 4 8.97234C4 7.66797 4.37612 6.74651 4.89105 6.13285C5.40871 5.51592 6.11737 5.14854 6.89298 5.03649C8.45319 4.8111 10.2609 5.62663 11.0797 7.55332C11.2365 7.9225 11.5989 8.1622 12 8.1622C12.4011 8.1622 12.7635 7.9225 12.9203 7.55332C13.7391 5.62663 15.5468 4.8111 17.107 5.03649C17.8826 5.14854 18.5913 5.51592 19.109 6.13285C19.6239 6.74651 20 7.66797 20 8.97234C20 11.5141 18.0603 14.012 15.8347 15.9953C14.7537 16.9585 13.6681 17.745 12.8506 18.2914C12.5132 18.5169 12.2231 18.7004 12 18.8375Z" fill="#5D769D"/>
</svg>
