<svg width="20" height="20" viewBox="0 0 20 20" fill="none" xmlns="http://www.w3.org/2000/svg">
<path fill-rule="evenodd" clip-rule="evenodd" d="M6.66666 14.1666C6.66666 13.7064 7.03975 13.3333 7.49999 13.3333H15.8333C16.2936 13.3333 16.6667 13.7064 16.6667 14.1666C16.6667 14.6269 16.2936 15 15.8333 15H7.49999C7.03975 15 6.66666 14.6269 6.66666 14.1666Z" fill="#5D769D"/>
<path fill-rule="evenodd" clip-rule="evenodd" d="M3.33334 14.1666C3.33334 13.7064 3.70644 13.3333 4.16668 13.3333H4.16834C4.62858 13.3333 5.00168 13.7064 5.00168 14.1666V14.1683C5.00168 14.6286 4.62858 15.0016 4.16834 15.0016H4.16668C3.70644 15.0016 3.33334 14.6286 3.33334 14.1683V14.1666Z" fill="#5D769D"/>
<path fill-rule="evenodd" clip-rule="evenodd" d="M6.66666 10C6.66666 9.53978 7.03975 9.16669 7.49999 9.16669H15.8333C16.2936 9.16669 16.6667 9.53978 16.6667 10C16.6667 10.4603 16.2936 10.8334 15.8333 10.8334H7.49999C7.03975 10.8334 6.66666 10.4603 6.66666 10Z" fill="#5D769D"/>
<path fill-rule="evenodd" clip-rule="evenodd" d="M3.33334 10C3.33334 9.53978 3.70644 9.16669 4.16668 9.16669H4.16834C4.62858 9.16669 5.00168 9.53978 5.00168 10V10.0017C5.00168 10.4619 4.62858 10.835 4.16834 10.835H4.16668C3.70644 10.835 3.33334 10.4619 3.33334 10.0017V10Z" fill="#5D769D"/>
<path fill-rule="evenodd" clip-rule="evenodd" d="M6.66666 5.83333C6.66666 5.3731 7.03975 5 7.49999 5H15.8333C16.2936 5 16.6667 5.3731 16.6667 5.83333C16.6667 6.29357 16.2936 6.66667 15.8333 6.66667H7.49999C7.03975 6.66667 6.66666 6.29357 6.66666 5.83333Z" fill="#5D769D"/>
<path fill-rule="evenodd" clip-rule="evenodd" d="M3.33334 5.83333C3.33334 5.3731 3.70644 5 4.16668 5H4.16834C4.62858 5 5.00168 5.3731 5.00168 5.83333V5.835C5.00168 6.29524 4.62858 6.66833 4.16834 6.66833H4.16668C3.70644 6.66833 3.33334 6.29524 3.33334 5.835V5.83333Z" fill="#5D769D"/>
</svg>
