<svg width="20" height="20" viewBox="0 0 20 20" fill="none" xmlns="http://www.w3.org/2000/svg">
<path fill-rule="evenodd" clip-rule="evenodd" d="M8.91074 7.4107C9.23618 7.08527 9.76382 7.08527 10.0893 7.4107L12.5893 9.9107C12.7455 10.067 12.8333 10.2789 12.8333 10.5C12.8333 10.721 12.7455 10.9329 12.5893 11.0892L10.0893 13.5892C9.76382 13.9147 9.23618 13.9147 8.91074 13.5892C8.58531 13.2638 8.58531 12.7361 8.91074 12.4107L9.98816 11.3333L2.83333 11.3333C2.3731 11.3333 2 10.9602 2 10.5C2 10.0397 2.3731 9.66663 2.83333 9.66663L9.98815 9.66663L8.91074 8.58921C8.58531 8.26378 8.58531 7.73614 8.91074 7.4107Z" fill="white"/>
<path fill-rule="evenodd" clip-rule="evenodd" d="M2 4.66667C2 3.74619 2.74619 3 3.66667 3H15.3333C16.2538 3 17 3.74619 17 4.66667V16.3333C17 17.2538 16.2538 18 15.3333 18H3.66667C2.74619 18 2 17.2538 2 16.3333V14.6667C2 14.2064 2.3731 13.8333 2.83333 13.8333C3.29357 13.8333 3.66667 14.2064 3.66667 14.6667V16.3333H15.3333V4.66667H3.66667V6.33333C3.66667 6.79357 3.29357 7.16667 2.83333 7.16667C2.3731 7.16667 2 6.79357 2 6.33333V4.66667Z" fill="white"/>
</svg>
