<svg width="145" height="49" viewBox="0 0 145 49" fill="none" xmlns="http://www.w3.org/2000/svg">
<path d="M63.7 19V4.8H69.62C70.2467 4.8 70.82 4.93333 71.34 5.2C71.86 5.45333 72.3133 5.8 72.7 6.24C73.0867 6.66667 73.3867 7.15333 73.6 7.7C73.8133 8.23333 73.92 8.78 73.92 9.34C73.92 10.1133 73.7467 10.8533 73.4 11.56C73.0533 12.2533 72.5667 12.82 71.94 13.26C71.3133 13.6867 70.58 13.9 69.74 13.9H65.5V19H63.7ZM65.5 12.3H69.64C70.1333 12.3 70.56 12.1667 70.92 11.9C71.2933 11.6333 71.58 11.2733 71.78 10.82C71.9933 10.3667 72.1 9.87333 72.1 9.34C72.1 8.78 71.98 8.28 71.74 7.84C71.5 7.38667 71.1867 7.03333 70.8 6.78C70.4133 6.52667 69.9867 6.4 69.52 6.4H65.5V12.3ZM80.5009 19.2C79.7143 19.2 78.9943 19.06 78.3409 18.78C77.7009 18.4867 77.1409 18.0933 76.6609 17.6C76.1943 17.0933 75.8276 16.5133 75.5609 15.86C75.3076 15.2067 75.1809 14.5133 75.1809 13.78C75.1809 12.7933 75.4076 11.8933 75.8609 11.08C76.3143 10.2667 76.9409 9.61333 77.7409 9.12C78.5543 8.62667 79.4809 8.38 80.5209 8.38C81.5743 8.38 82.4876 8.63333 83.2609 9.14C84.0476 9.63333 84.6543 10.2867 85.0809 11.1C85.5209 11.9 85.7409 12.7667 85.7409 13.7C85.7409 13.8333 85.7343 13.9667 85.7209 14.1C85.7209 14.22 85.7143 14.3133 85.7009 14.38H77.0409C77.0943 15.06 77.2809 15.6667 77.6009 16.2C77.9343 16.72 78.3609 17.1333 78.8809 17.44C79.4009 17.7333 79.9609 17.88 80.5609 17.88C81.2009 17.88 81.8009 17.72 82.3609 17.4C82.9343 17.08 83.3276 16.66 83.5409 16.14L85.0609 16.56C84.8343 17.0667 84.4943 17.52 84.0409 17.92C83.6009 18.32 83.0743 18.6333 82.4609 18.86C81.8609 19.0867 81.2076 19.2 80.5009 19.2ZM76.9809 13.16H84.1009C84.0476 12.48 83.8543 11.88 83.5209 11.36C83.1876 10.84 82.7609 10.4333 82.2409 10.14C81.7209 9.84667 81.1476 9.7 80.5209 9.7C79.9076 9.7 79.3409 9.84667 78.8209 10.14C78.3009 10.4333 77.8743 10.84 77.5409 11.36C77.2209 11.88 77.0343 12.48 76.9809 13.16ZM87.6773 19V8.56H89.4373V12.86H90.5973L93.8773 8.56H95.8773L91.9773 13.62L96.3373 19H94.2973L90.5973 14.48H89.4373V19H87.6773ZM97.1484 19.08V17.5C97.4951 17.5 97.8018 17.4133 98.0684 17.24C98.3484 17.0533 98.5951 16.7467 98.8084 16.32C99.0218 15.88 99.1884 15.28 99.3084 14.52C99.4418 13.7467 99.5284 12.7667 99.5684 11.58L99.6884 8.56H106.788V19H105.028V10.12H101.248L101.208 11.74C101.155 13.1667 101.035 14.3533 100.848 15.3C100.662 16.2467 100.402 16.9933 100.068 17.54C99.7351 18.0867 99.3218 18.48 98.8284 18.72C98.3484 18.96 97.7884 19.08 97.1484 19.08ZM108.811 15.98C108.811 15.3133 108.998 14.74 109.371 14.26C109.758 13.7667 110.284 13.3867 110.951 13.12C111.618 12.8533 112.391 12.72 113.271 12.72C113.738 12.72 114.231 12.76 114.751 12.84C115.271 12.9067 115.731 13.0133 116.131 13.16V12.4C116.131 11.6 115.891 10.9733 115.411 10.52C114.931 10.0533 114.251 9.82 113.371 9.82C112.798 9.82 112.244 9.92667 111.711 10.14C111.191 10.34 110.638 10.6333 110.051 11.02L109.411 9.78C110.091 9.31333 110.771 8.96667 111.451 8.74C112.131 8.5 112.838 8.38 113.571 8.38C114.904 8.38 115.958 8.75333 116.731 9.5C117.504 10.2333 117.891 11.26 117.891 12.58V17C117.891 17.2133 117.931 17.3733 118.011 17.48C118.104 17.5733 118.251 17.6267 118.451 17.64V19C118.278 19.0267 118.124 19.0467 117.991 19.06C117.871 19.0733 117.771 19.08 117.691 19.08C117.278 19.08 116.964 18.9667 116.751 18.74C116.551 18.5133 116.438 18.2733 116.411 18.02L116.371 17.36C115.918 17.9467 115.324 18.4 114.591 18.72C113.858 19.04 113.131 19.2 112.411 19.2C111.718 19.2 111.098 19.06 110.551 18.78C110.004 18.4867 109.578 18.1 109.271 17.62C108.964 17.1267 108.811 16.58 108.811 15.98ZM115.611 16.72C115.771 16.5333 115.898 16.3467 115.991 16.16C116.084 15.96 116.131 15.7933 116.131 15.66V14.36C115.718 14.2 115.284 14.08 114.831 14C114.378 13.9067 113.931 13.86 113.491 13.86C112.598 13.86 111.871 14.04 111.311 14.4C110.764 14.7467 110.491 15.2267 110.491 15.84C110.491 16.1733 110.578 16.5 110.751 16.82C110.938 17.1267 111.204 17.38 111.551 17.58C111.911 17.78 112.351 17.88 112.871 17.88C113.418 17.88 113.938 17.7733 114.431 17.56C114.924 17.3333 115.318 17.0533 115.611 16.72ZM120.685 19V8.56H122.505L126.385 15.4L130.285 8.56H132.065V19H130.385V11.1L126.945 17.14H125.825L122.365 11.1V19H120.685ZM134.084 15.98C134.084 15.3133 134.271 14.74 134.644 14.26C135.031 13.7667 135.558 13.3867 136.224 13.12C136.891 12.8533 137.664 12.72 138.544 12.72C139.011 12.72 139.504 12.76 140.024 12.84C140.544 12.9067 141.004 13.0133 141.404 13.16V12.4C141.404 11.6 141.164 10.9733 140.684 10.52C140.204 10.0533 139.524 9.82 138.644 9.82C138.071 9.82 137.518 9.92667 136.984 10.14C136.464 10.34 135.911 10.6333 135.324 11.02L134.684 9.78C135.364 9.31333 136.044 8.96667 136.724 8.74C137.404 8.5 138.111 8.38 138.844 8.38C140.178 8.38 141.231 8.75333 142.004 9.5C142.778 10.2333 143.164 11.26 143.164 12.58V17C143.164 17.2133 143.204 17.3733 143.284 17.48C143.378 17.5733 143.524 17.6267 143.724 17.64V19C143.551 19.0267 143.398 19.0467 143.264 19.06C143.144 19.0733 143.044 19.08 142.964 19.08C142.551 19.08 142.238 18.9667 142.024 18.74C141.824 18.5133 141.711 18.2733 141.684 18.02L141.644 17.36C141.191 17.9467 140.598 18.4 139.864 18.72C139.131 19.04 138.404 19.2 137.684 19.2C136.991 19.2 136.371 19.06 135.824 18.78C135.278 18.4867 134.851 18.1 134.544 17.62C134.238 17.1267 134.084 16.58 134.084 15.98ZM140.884 16.72C141.044 16.5333 141.171 16.3467 141.264 16.16C141.358 15.96 141.404 15.7933 141.404 15.66V14.36C140.991 14.2 140.558 14.08 140.104 14C139.651 13.9067 139.204 13.86 138.764 13.86C137.871 13.86 137.144 14.04 136.584 14.4C136.038 14.7467 135.764 15.2267 135.764 15.84C135.764 16.1733 135.851 16.5 136.024 16.82C136.211 17.1267 136.478 17.38 136.824 17.58C137.184 17.78 137.624 17.88 138.144 17.88C138.691 17.88 139.211 17.7733 139.704 17.56C140.198 17.3333 140.591 17.0533 140.884 16.72ZM63.7 43V28.8H73.44V30.38H65.5V34.86H69.94C71.5 34.86 72.66 35.2267 73.42 35.96C74.1933 36.6933 74.58 37.6533 74.58 38.84C74.58 39.6267 74.4133 40.3333 74.08 40.96C73.7467 41.5867 73.2467 42.0867 72.58 42.46C71.9133 42.82 71.0733 43 70.06 43H63.7ZM65.5 41.42H69.84C70.5333 41.42 71.0933 41.2933 71.52 41.04C71.9467 40.7867 72.2533 40.46 72.44 40.06C72.64 39.6467 72.74 39.22 72.74 38.78C72.74 38.3533 72.6533 37.9533 72.48 37.58C72.3067 37.1933 72.0067 36.8867 71.58 36.66C71.1533 36.42 70.5533 36.3 69.78 36.3H65.5V41.42ZM76.5445 43V32.58H78.3045V40.64L84.1445 32.56H85.7445V43H83.9845V35.1L78.2245 43H76.5445ZM91.8167 43.14C90.8034 43.14 89.9434 42.9533 89.2367 42.58C88.5434 42.1933 88.0101 41.66 87.6367 40.98L89.0767 40.34C89.3167 40.7667 89.6567 41.1 90.0967 41.34C90.5501 41.58 91.0967 41.7 91.7367 41.7C92.4967 41.7 93.0967 41.5333 93.5367 41.2C93.9767 40.8667 94.1967 40.42 94.1967 39.86C94.1967 39.3533 94.0167 38.9467 93.6567 38.64C93.3101 38.32 92.8167 38.1533 92.1767 38.14H91.1167V36.98H92.2367C92.5167 36.98 92.7634 36.9133 92.9767 36.78C93.2034 36.6333 93.3767 36.44 93.4967 36.2C93.6301 35.96 93.6967 35.6933 93.6967 35.4C93.6967 34.9333 93.5301 34.56 93.1967 34.28C92.8634 33.9867 92.3634 33.84 91.6967 33.84C91.1501 33.84 90.6901 33.9467 90.3167 34.16C89.9567 34.3733 89.6634 34.6933 89.4367 35.12L88.0967 34.4C88.4301 33.7733 88.9101 33.2867 89.5367 32.94C90.1767 32.58 90.9234 32.4 91.7767 32.4C92.4567 32.4 93.0567 32.5133 93.5767 32.74C94.1101 32.9533 94.5234 33.2667 94.8167 33.68C95.1234 34.0933 95.2767 34.5933 95.2767 35.18C95.2767 35.6733 95.1567 36.1333 94.9167 36.56C94.6901 36.9733 94.3501 37.2867 93.8967 37.5C94.5234 37.6867 95.0034 38.0133 95.3367 38.48C95.6701 38.9333 95.8367 39.4733 95.8367 40.1C95.8367 40.74 95.6634 41.2867 95.3167 41.74C94.9701 42.1933 94.4967 42.54 93.8967 42.78C93.2967 43.02 92.6034 43.14 91.8167 43.14ZM97.9313 43V32.56H99.6913V36.88H105.131V32.56H106.891V43H105.131V38.44H99.6913V43H97.9313ZM114.349 43.2C113.562 43.2 112.842 43.06 112.189 42.78C111.549 42.4867 110.989 42.0933 110.509 41.6C110.042 41.0933 109.675 40.5133 109.409 39.86C109.155 39.2067 109.029 38.5133 109.029 37.78C109.029 36.7933 109.255 35.8933 109.709 35.08C110.162 34.2667 110.789 33.6133 111.589 33.12C112.402 32.6267 113.329 32.38 114.369 32.38C115.422 32.38 116.335 32.6333 117.109 33.14C117.895 33.6333 118.502 34.2867 118.929 35.1C119.369 35.9 119.589 36.7667 119.589 37.7C119.589 37.8333 119.582 37.9667 119.569 38.1C119.569 38.22 119.562 38.3133 119.549 38.38H110.889C110.942 39.06 111.129 39.6667 111.449 40.2C111.782 40.72 112.209 41.1333 112.729 41.44C113.249 41.7333 113.809 41.88 114.409 41.88C115.049 41.88 115.649 41.72 116.209 41.4C116.782 41.08 117.175 40.66 117.389 40.14L118.909 40.56C118.682 41.0667 118.342 41.52 117.889 41.92C117.449 42.32 116.922 42.6333 116.309 42.86C115.709 43.0867 115.055 43.2 114.349 43.2ZM110.829 37.16H117.949C117.895 36.48 117.702 35.88 117.369 35.36C117.035 34.84 116.609 34.4333 116.089 34.14C115.569 33.8467 114.995 33.7 114.369 33.7C113.755 33.7 113.189 33.8467 112.669 34.14C112.149 34.4333 111.722 34.84 111.389 35.36C111.069 35.88 110.882 36.48 110.829 37.16ZM126.165 43.2C125.378 43.2 124.658 43.06 124.005 42.78C123.365 42.4867 122.805 42.0867 122.325 41.58C121.858 41.0733 121.492 40.4933 121.225 39.84C120.972 39.1867 120.845 38.4933 120.845 37.76C120.845 36.7733 121.065 35.8733 121.505 35.06C121.945 34.2467 122.565 33.6 123.365 33.12C124.165 32.6267 125.092 32.38 126.145 32.38C127.172 32.38 128.065 32.6133 128.825 33.08C129.598 33.5333 130.172 34.1467 130.545 34.92L128.825 35.46C128.558 34.9667 128.185 34.5867 127.705 34.32C127.225 34.04 126.692 33.9 126.105 33.9C125.465 33.9 124.878 34.0667 124.345 34.4C123.825 34.7333 123.412 35.1933 123.105 35.78C122.798 36.3533 122.645 37.0133 122.645 37.76C122.645 38.4933 122.798 39.16 123.105 39.76C123.425 40.3467 123.845 40.8133 124.365 41.16C124.898 41.5067 125.485 41.68 126.125 41.68C126.538 41.68 126.932 41.6067 127.305 41.46C127.692 41.3133 128.025 41.12 128.305 40.88C128.598 40.6267 128.798 40.3533 128.905 40.06L130.625 40.58C130.412 41.0867 130.085 41.54 129.645 41.94C129.218 42.3267 128.705 42.6333 128.105 42.86C127.518 43.0867 126.872 43.2 126.165 43.2Z" fill="white"/>
<g clip-path="url(#clip0_308_181)">
<path fill-rule="evenodd" clip-rule="evenodd" d="M24.5 49C10.9676 49 0 38.0324 0 24.5C0 10.9676 10.9676 0 24.5 0C32.607 0 40.749 0.128435 48.8716 0.128435C48.8716 8.25099 49 16.393 49 24.5C49 38.0324 38.0324 49 24.5 49Z" fill="white"/>
<path fill-rule="evenodd" clip-rule="evenodd" d="M14.5327 46.8867C12.2753 45.8786 10.197 44.5398 8.35998 42.9324V26.4577C7.71781 16.1478 14.7195 8.24323 24.5 8.24323C33.4788 8.24323 40.7568 15.5212 40.7568 24.5C40.7568 33.4788 33.4788 40.7568 24.5 40.7568C23.1923 40.7568 21.9235 40.6011 20.7053 40.3092V33.7201C21.8768 34.2027 23.1573 34.4674 24.5 34.4674C30.0033 34.4674 34.4674 30.0033 34.4674 24.5C34.4674 18.9968 30.0033 14.5327 24.5 14.5327C18.7165 14.5327 14.8401 18.915 14.5327 24.4922V37.3435V46.8867Z" fill="#5D769D"/>
</g>
<defs>
<clipPath id="clip0_308_181">
<rect width="49" height="49" fill="white"/>
</clipPath>
</defs>
</svg>
