<svg width="20" height="20" viewBox="0 0 20 20" fill="none" xmlns="http://www.w3.org/2000/svg">
<path fill-rule="evenodd" clip-rule="evenodd" d="M1.66668 10C1.66668 5.39765 5.39764 1.66669 10 1.66669C14.6024 1.66669 18.3333 5.39765 18.3333 10C18.3333 14.6024 14.6024 18.3334 10 18.3334C8.50573 18.3334 7.10135 17.9393 5.88736 17.2493L2.76354 18.2906C2.46409 18.3904 2.13395 18.3125 1.91076 18.0893C1.68756 17.8661 1.60963 17.5359 1.70944 17.2365L2.75072 14.1127C2.06069 12.8987 1.66668 11.4943 1.66668 10ZM10 3.33335C6.31811 3.33335 3.33335 6.31812 3.33335 10C3.33335 11.3132 3.71216 12.5353 4.36616 13.5661C4.50039 13.7777 4.5323 14.0384 4.45307 14.2761L3.81763 16.1824L5.72396 15.547C5.96165 15.4677 6.22237 15.4996 6.43393 15.6339C7.46471 16.2879 8.68685 16.6667 10 16.6667C13.6819 16.6667 16.6667 13.6819 16.6667 10C16.6667 6.31812 13.6819 3.33335 10 3.33335Z" fill="#5D769D"/>
<path fill-rule="evenodd" clip-rule="evenodd" d="M12.5 10C12.5 9.53978 12.8731 9.16669 13.3333 9.16669H13.335C13.7952 9.16669 14.1683 9.53978 14.1683 10V10.0017C14.1683 10.4619 13.7952 10.835 13.335 10.835H13.3333C12.8731 10.835 12.5 10.4619 12.5 10.0017V10Z" fill="#5D769D"/>
<path fill-rule="evenodd" clip-rule="evenodd" d="M9.16666 10C9.16666 9.53978 9.53975 9.16669 9.99999 9.16669H10.0017C10.4619 9.16669 10.835 9.53978 10.835 10V10.0017C10.835 10.4619 10.4619 10.835 10.0017 10.835H9.99999C9.53975 10.835 9.16666 10.4619 9.16666 10.0017V10Z" fill="#5D769D"/>
<path fill-rule="evenodd" clip-rule="evenodd" d="M5.83334 10C5.83334 9.53978 6.20644 9.16669 6.66668 9.16669H6.66834C7.12858 9.16669 7.50168 9.53978 7.50168 10V10.0017C7.50168 10.4619 7.12858 10.835 6.66834 10.835H6.66668C6.20644 10.835 5.83334 10.4619 5.83334 10.0017V10Z" fill="#5D769D"/>
</svg>
