<svg width="20" height="20" viewBox="0 0 20 20" fill="none" xmlns="http://www.w3.org/2000/svg">
<path fill-rule="evenodd" clip-rule="evenodd" d="M6.66666 14.1666C6.66666 13.7064 7.03975 13.3333 7.49999 13.3333H12.5C12.9602 13.3333 13.3333 13.7064 13.3333 14.1666V15C13.3333 16.8409 11.8409 18.3333 9.99999 18.3333C8.15904 18.3333 6.66666 16.8409 6.66666 15V14.1666ZM8.33332 15C8.33332 15.9205 9.07952 16.6666 9.99999 16.6666C10.9205 16.6666 11.6667 15.9205 11.6667 15H8.33332Z" fill="#5D769D"/>
<path fill-rule="evenodd" clip-rule="evenodd" d="M9.99999 3.33329C7.23857 3.3333 5 5.57187 5 8.33329V11.4353C5 11.8044 4.85337 12.1585 4.59235 12.4195L4.01344 11.8405L4.59235 12.4195L4.16667 12.8452L4.16667 13.3333H15.8333V12.8451L15.4076 12.4194C15.1466 12.1584 15 11.8044 15 11.4353V8.33329C15 5.57186 12.7614 3.33329 9.99999 3.33329ZM3.33333 8.33329C3.33333 4.6514 6.31809 1.66664 9.99998 1.66663C13.6819 1.66662 16.6667 4.65139 16.6667 8.33329V11.3214L17.0119 11.6667C17.3244 11.9792 17.5 12.4031 17.5 12.8451V13.3333C17.5 14.2538 16.7538 15 15.8333 15H4.16667C3.24619 15 2.5 14.2538 2.5 13.3333V12.8452C2.5 12.4031 2.67559 11.9792 2.98816 11.6666L3.52129 12.1998L2.98816 11.6666L3.33333 11.3215V8.33329Z" fill="#5D769D"/>
</svg>
