<svg width="29" height="29" viewBox="0 0 29 29" fill="none" xmlns="http://www.w3.org/2000/svg">
<g clip-path="url(#clip0_90_8917)">
<path fill-rule="evenodd" clip-rule="evenodd" d="M14.1421 6.23776C14.6023 6.23776 14.9754 6.61085 14.9754 7.07109L14.9754 21.2132C14.9754 21.6734 14.6023 22.0465 14.1421 22.0465C13.6819 22.0465 13.3088 21.6734 13.3088 21.2132L13.3088 7.07109C13.3088 6.61085 13.6819 6.23776 14.1421 6.23776Z" fill="#5D769D"/>
<path fill-rule="evenodd" clip-rule="evenodd" d="M22.0465 14.1422C22.0465 14.6024 21.6734 14.9755 21.2132 14.9755H7.071C6.61076 14.9755 6.23767 14.6024 6.23767 14.1422C6.23767 13.6819 6.61076 13.3088 7.071 13.3088H21.2132C21.6734 13.3088 22.0465 13.6819 22.0465 14.1422Z" fill="#5D769D"/>
</g>
<defs>
<clipPath id="clip0_90_8917">
<rect width="20" height="20" fill="white" transform="translate(14.1421) rotate(45)"/>
</clipPath>
</defs>
</svg>
