<svg width="16" height="16" viewBox="0 0 16 16" fill="none" xmlns="http://www.w3.org/2000/svg">
<path fill-rule="evenodd" clip-rule="evenodd" d="M6.66671 2.66668C4.45757 2.66668 2.66671 4.45754 2.66671 6.66668C2.66671 8.87582 4.45757 10.6667 6.66671 10.6667C8.87585 10.6667 10.6667 8.87582 10.6667 6.66668C10.6667 4.45754 8.87585 2.66668 6.66671 2.66668ZM1.33337 6.66668C1.33337 3.72116 3.72119 1.33334 6.66671 1.33334C9.61223 1.33334 12 3.72116 12 6.66668C12 9.6122 9.61223 12 6.66671 12C3.72119 12 1.33337 9.6122 1.33337 6.66668Z" fill="#5D769D"/>
<path fill-rule="evenodd" clip-rule="evenodd" d="M9.52864 9.52861C9.78899 9.26826 10.2111 9.26826 10.4714 9.52861L14.4714 13.5286C14.7318 13.789 14.7318 14.2111 14.4714 14.4714C14.2111 14.7318 13.789 14.7318 13.5286 14.4714L9.52864 10.4714C9.26829 10.2111 9.26829 9.78896 9.52864 9.52861Z" fill="#5D769D"/>
</svg>
